<svg id="Capa_1" enable-background="new 0 0 512 512" height="512" viewBox="0 0 512 512" width="512" xmlns="http://www.w3.org/2000/svg"><g><path d="m469.546 39.314h-427.092c-7.01 0-12.693-5.683-12.693-12.693v-6.428c0-7.01 5.683-12.693 12.693-12.693h427.091c7.01 0 12.693 5.683 12.693 12.693v6.428c.001 7.01-5.682 12.693-12.692 12.693z" fill="#78d0b1"/><path d="m469.546 7.5h-22.261c7.01 0 12.693 5.683 12.693 12.693v6.427c0 7.01-5.683 12.693-12.693 12.693h22.261c7.01 0 12.693-5.683 12.693-12.693v-6.427c0-7.01-5.683-12.693-12.693-12.693z" fill="#66b49d"/><path d="m469.546 504.5h-427.092c-7.01 0-12.693-5.683-12.693-12.693v-6.428c0-7.01 5.683-12.693 12.693-12.693h427.091c7.01 0 12.693 5.683 12.693 12.693v6.428c.001 7.01-5.682 12.693-12.692 12.693z" fill="#78d0b1"/><path d="m469.546 472.686h-22.261c7.01 0 12.693 5.683 12.693 12.693v6.427c0 7.01-5.683 12.693-12.693 12.693h22.261c7.01 0 12.693-5.683 12.693-12.693v-6.427c0-7.01-5.683-12.693-12.693-12.693z" fill="#66b49d"/><path d="m150.958 174.213h-61.274c-7.609 0-13.777-6.168-13.777-13.777v-75.483c0-7.609 6.168-13.777 13.777-13.777h61.274c7.609 0 13.777 6.168 13.777 13.777v75.483c0 7.609-6.168 13.777-13.777 13.777z" fill="#dd636e"/><path d="m150.958 71.175h-17.796c7.609 0 13.777 6.168 13.777 13.777v75.483c0 7.609-6.168 13.777-13.777 13.777h17.796c7.609 0 13.777-6.168 13.777-13.777v-75.482c0-7.609-6.168-13.778-13.777-13.778z" fill="#da4a54"/><path d="m150.958 307.519h-61.274c-7.609 0-13.777-6.168-13.777-13.777v-75.483c0-7.609 6.168-13.777 13.777-13.777h61.274c7.609 0 13.777 6.168 13.777 13.777v75.483c0 7.609-6.168 13.777-13.777 13.777z" fill="#f1d333"/><path d="m150.958 204.481h-17.796c7.609 0 13.777 6.168 13.777 13.777v75.483c0 7.609-6.168 13.777-13.777 13.777h17.796c7.609 0 13.777-6.168 13.777-13.777v-75.483c0-7.609-6.168-13.777-13.777-13.777z" fill="#eab14d"/><path d="m150.958 440.825h-61.274c-7.609 0-13.777-6.168-13.777-13.777v-75.483c0-7.609 6.168-13.777 13.777-13.777h61.274c7.609 0 13.777 6.168 13.777 13.777v75.483c0 7.608-6.168 13.777-13.777 13.777z" fill="#dd636e"/><path d="m150.958 337.787h-17.796c7.609 0 13.777 6.168 13.777 13.777v75.483c0 7.609-6.168 13.777-13.777 13.777h17.796c7.609 0 13.777-6.168 13.777-13.777v-75.483c0-7.609-6.168-13.777-13.777-13.777z" fill="#da4a54"/><path d="m286.637 174.213h-61.274c-7.609 0-13.777-6.168-13.777-13.777v-75.483c0-7.609 6.168-13.777 13.777-13.777h61.274c7.609 0 13.777 6.168 13.777 13.777v75.483c0 7.609-6.168 13.777-13.777 13.777z" fill="#dd636e"/><path d="m286.637 71.175h-17.796c7.609 0 13.777 6.168 13.777 13.777v75.483c0 7.609-6.168 13.777-13.777 13.777h17.796c7.609 0 13.777-6.168 13.777-13.777v-75.482c0-7.609-6.168-13.778-13.777-13.778z" fill="#da4a54"/><path d="m286.637 307.519h-61.274c-7.609 0-13.777-6.168-13.777-13.777v-75.483c0-7.609 6.168-13.777 13.777-13.777h61.274c7.609 0 13.777 6.168 13.777 13.777v75.483c0 7.609-6.168 13.777-13.777 13.777z" fill="#dd636e"/><path d="m286.637 204.481h-17.796c7.609 0 13.777 6.168 13.777 13.777v75.483c0 7.609-6.168 13.777-13.777 13.777h17.796c7.609 0 13.777-6.168 13.777-13.777v-75.483c0-7.609-6.168-13.777-13.777-13.777z" fill="#da4a54"/><path d="m286.637 440.825h-61.274c-7.609 0-13.777-6.168-13.777-13.777v-75.483c0-7.609 6.168-13.777 13.777-13.777h61.274c7.609 0 13.777 6.168 13.777 13.777v75.483c0 7.608-6.168 13.777-13.777 13.777z" fill="#f1d333"/><path d="m286.637 337.787h-17.796c7.609 0 13.777 6.168 13.777 13.777v75.483c0 7.609-6.168 13.777-13.777 13.777h17.796c7.609 0 13.777-6.168 13.777-13.777v-75.483c0-7.609-6.168-13.777-13.777-13.777z" fill="#eab14d"/><path d="m422.316 174.213h-61.274c-7.609 0-13.777-6.168-13.777-13.777v-75.483c0-7.609 6.168-13.777 13.777-13.777h61.274c7.609 0 13.777 6.168 13.777 13.777v75.483c0 7.609-6.168 13.777-13.777 13.777z" fill="#f1d333"/><path d="m422.316 71.175h-17.796c7.609 0 13.777 6.168 13.777 13.777v75.483c0 7.609-6.168 13.777-13.777 13.777h17.796c7.609 0 13.777-6.168 13.777-13.777v-75.482c0-7.609-6.168-13.778-13.777-13.778z" fill="#eab14d"/><path d="m422.316 307.519h-61.274c-7.609 0-13.777-6.168-13.777-13.777v-75.483c0-7.609 6.168-13.777 13.777-13.777h61.274c7.609 0 13.777 6.168 13.777 13.777v75.483c0 7.609-6.168 13.777-13.777 13.777z" fill="#dd636e"/><path d="m422.316 204.481h-17.796c7.609 0 13.777 6.168 13.777 13.777v75.483c0 7.609-6.168 13.777-13.777 13.777h17.796c7.609 0 13.777-6.168 13.777-13.777v-75.483c0-7.609-6.168-13.777-13.777-13.777z" fill="#da4a54"/><path d="m422.316 440.825h-61.274c-7.609 0-13.777-6.168-13.777-13.777v-75.483c0-7.609 6.168-13.777 13.777-13.777h61.274c7.609 0 13.777 6.168 13.777 13.777v75.483c0 7.608-6.168 13.777-13.777 13.777z" fill="#f1d333"/><path d="m422.316 337.787h-17.796c7.609 0 13.777 6.168 13.777 13.777v75.483c0 7.609-6.168 13.777-13.777 13.777h17.796c7.609 0 13.777-6.168 13.777-13.777v-75.483c0-7.609-6.168-13.777-13.777-13.777z" fill="#eab14d"/><g><path d="m145.617 122.694c0-13.948-11.348-25.296-25.296-25.296s-25.296 11.348-25.296 25.296 11.348 25.296 25.296 25.296 25.296-11.347 25.296-25.296zm-35.592 0c0-5.677 4.619-10.296 10.296-10.296s10.296 4.619 10.296 10.296-4.619 10.296-10.296 10.296-10.296-4.619-10.296-10.296z"/><path d="m120.321 364.01c-13.948 0-25.296 11.348-25.296 25.296s11.348 25.296 25.296 25.296 25.296-11.348 25.296-25.296-11.348-25.296-25.296-25.296zm0 35.592c-5.677 0-10.296-4.619-10.296-10.296s4.619-10.296 10.296-10.296 10.296 4.619 10.296 10.296-4.619 10.296-10.296 10.296z"/><path d="m256 97.398c-13.948 0-25.296 11.348-25.296 25.296s11.347 25.296 25.296 25.296 25.296-11.348 25.296-25.296-11.348-25.296-25.296-25.296zm0 35.592c-5.677 0-10.296-4.619-10.296-10.296s4.619-10.296 10.296-10.296 10.296 4.619 10.296 10.296-4.62 10.296-10.296 10.296z"/><path d="m256 230.704c-13.948 0-25.296 11.348-25.296 25.296s11.348 25.296 25.296 25.296 25.296-11.348 25.296-25.296-11.348-25.296-25.296-25.296zm0 35.592c-5.677 0-10.296-4.619-10.296-10.296s4.619-10.296 10.296-10.296 10.296 4.619 10.296 10.296-4.62 10.296-10.296 10.296z"/><path d="m366.383 256c0 13.948 11.348 25.296 25.296 25.296s25.296-11.348 25.296-25.296-11.348-25.296-25.296-25.296-25.296 11.348-25.296 25.296zm35.592 0c0 5.677-4.619 10.296-10.296 10.296s-10.296-4.619-10.296-10.296 4.619-10.296 10.296-10.296 10.296 4.619 10.296 10.296z"/><path d="m409.566 104.807c-2.93-2.928-7.678-2.928-10.607 0l-7.28 7.28-7.28-7.28c-2.93-2.928-7.678-2.928-10.607 0-2.929 2.93-2.929 7.678 0 10.607l7.28 7.28-7.28 7.28c-2.929 2.93-2.929 7.678 0 10.607 1.465 1.464 3.385 2.196 5.304 2.196s3.839-.732 5.304-2.196l7.28-7.28 7.28 7.28c1.465 1.464 3.385 2.196 5.304 2.196s3.839-.732 5.304-2.196c2.929-2.93 2.929-7.678 0-10.607l-7.28-7.28 7.28-7.28c2.927-2.93 2.927-7.678-.002-10.607z"/><path d="m127.601 273.887c1.465 1.464 3.385 2.196 5.304 2.196s3.839-.732 5.304-2.196c2.929-2.93 2.929-7.678 0-10.607l-7.28-7.28 7.28-7.28c2.929-2.93 2.929-7.678 0-10.607-2.93-2.928-7.678-2.928-10.607 0l-7.28 7.28-7.28-7.28c-2.93-2.928-7.678-2.928-10.607 0-2.929 2.93-2.929 7.678 0 10.607l7.28 7.28-7.28 7.28c-2.929 2.93-2.929 7.678 0 10.607 1.465 1.464 3.385 2.196 5.304 2.196s3.839-.732 5.304-2.196l7.28-7.28z"/><path d="m273.887 371.418c-2.93-2.928-7.678-2.928-10.607 0l-7.28 7.28-7.28-7.28c-2.93-2.928-7.678-2.928-10.607 0-2.929 2.93-2.929 7.678 0 10.607l7.28 7.28-7.28 7.28c-2.929 2.93-2.929 7.678 0 10.607 1.465 1.464 3.385 2.196 5.304 2.196s3.839-.732 5.304-2.196l7.28-7.28 7.28 7.28c1.465 1.464 3.385 2.196 5.304 2.196s3.839-.732 5.304-2.196c2.929-2.93 2.929-7.678 0-10.607l-7.28-7.28 7.28-7.28c2.927-2.929 2.927-7.677-.002-10.607z"/><path d="m384.399 371.418c-2.93-2.928-7.678-2.928-10.607 0-2.929 2.93-2.929 7.678 0 10.607l7.28 7.28-7.28 7.28c-2.929 2.93-2.929 7.678 0 10.607 1.465 1.464 3.385 2.196 5.304 2.196s3.839-.732 5.304-2.196l7.28-7.28 7.28 7.28c1.465 1.464 3.385 2.196 5.304 2.196s3.839-.732 5.304-2.196c2.929-2.93 2.929-7.678 0-10.607l-7.28-7.28 7.28-7.28c2.929-2.93 2.929-7.678 0-10.607-2.93-2.928-7.678-2.928-10.607 0l-7.28 7.28z"/><path d="m469.545 46.813c11.135 0 20.193-9.059 20.193-20.192v-6.428c.001-11.134-9.058-20.193-20.193-20.193h-342.72c-4.143 0-7.5 3.357-7.5 7.5s3.357 7.5 7.5 7.5h342.721c2.863 0 5.193 2.33 5.193 5.193v6.428c0 2.863-2.33 5.192-5.193 5.192h-427.091c-2.863 0-5.193-2.329-5.193-5.192v-6.428c0-2.863 2.33-5.193 5.193-5.193h54.383c4.143 0 7.5-3.357 7.5-7.5s-3.358-7.5-7.501-7.5h-54.382c-11.135 0-20.194 9.059-20.194 20.193v6.428c0 11.134 9.059 20.192 20.193 20.192h70.366v16.861h-23.136c-11.732 0-21.277 9.545-21.277 21.277v75.483c0 11.732 9.545 21.277 21.277 21.277h23.137v15.269h-23.137c-11.732 0-21.277 9.545-21.277 21.276v75.483c0 11.732 9.545 21.277 21.277 21.277h23.137v15.269h-23.137c-11.732 0-21.277 9.545-21.277 21.277v75.483c0 11.731 9.545 21.276 21.277 21.276h23.137v16.861h-70.366c-11.135 0-20.193 9.059-20.193 20.193v6.428c0 11.135 9.059 20.193 20.193 20.193h427.091c11.135 0 20.193-9.059 20.193-20.193v-6.428c0-11.135-9.059-20.193-20.193-20.193h-70.366v-16.861h23.137c11.732 0 21.277-9.545 21.277-21.277v-75.483c0-11.731-9.545-21.276-21.277-21.276h-23.137v-15.269h23.137c11.732 0 21.277-9.545 21.277-21.277v-75.483c0-11.731-9.545-21.276-21.277-21.276h-23.137v-15.269h23.137c11.732 0 21.277-9.545 21.277-21.277v-20.164c0-4.143-3.357-7.5-7.5-7.5s-7.5 3.357-7.5 7.5v20.164c0 3.461-2.816 6.277-6.277 6.277h-61.273c-3.461 0-6.277-2.816-6.277-6.277v-75.482c0-3.461 2.816-6.276 6.277-6.276h61.273c3.461 0 6.277 2.815 6.277 6.276v25.332c0 4.143 3.357 7.5 7.5 7.5s7.5-3.357 7.5-7.5v-25.332c0-11.731-9.545-21.276-21.277-21.276h-23.137v-16.863zm-386.138 113.623v-75.484c0-3.461 2.816-6.277 6.277-6.277h61.273c3.461 0 6.277 2.816 6.277 6.277v75.483c0 3.461-2.816 6.277-6.277 6.277h-61.273c-3.461.001-6.277-2.816-6.277-6.276zm0 133.305v-75.483c0-3.461 2.816-6.276 6.277-6.276h61.273c3.461 0 6.277 2.815 6.277 6.276v75.483c0 3.461-2.816 6.277-6.277 6.277h-61.273c-3.461.001-6.277-2.816-6.277-6.277zm44.414 154.583h23.137c11.732 0 21.277-9.545 21.277-21.276v-26.791c0-4.143-3.357-7.5-7.5-7.5s-7.5 3.357-7.5 7.5v26.791c0 3.461-2.816 6.276-6.277 6.276h-61.274c-3.461 0-6.277-2.815-6.277-6.276v-75.483c0-3.461 2.816-6.277 6.277-6.277h61.273c3.461 0 6.277 2.816 6.277 6.277v18.705c0 4.143 3.357 7.5 7.5 7.5s7.5-3.357 7.5-7.5v-18.705c0-11.732-9.545-21.277-21.277-21.277h-23.137v-15.269h23.137c11.732 0 21.277-9.545 21.277-21.277v-75.483c0-11.731-9.545-21.276-21.277-21.276h-23.137v-15.269h23.137c11.732 0 21.277-9.545 21.277-21.277v-75.485c0-11.732-9.545-21.277-21.277-21.277h-23.137v-16.862h120.68v16.861h-23.137c-11.732 0-21.277 9.545-21.277 21.277v75.483c0 11.732 9.545 21.277 21.277 21.277h23.137v15.269h-23.137c-11.732 0-21.277 9.545-21.277 21.276v75.483c0 11.732 9.545 21.277 21.277 21.277h23.137v15.269h-23.137c-11.732 0-21.277 9.545-21.277 21.276v75.483c0 11.732 9.545 21.277 21.277 21.277h23.137v16.861h-120.679zm97.542-281.611c-3.461 0-6.277-2.816-6.277-6.277v-75.484c0-3.461 2.816-6.277 6.277-6.277h61.273c3.461 0 6.277 2.816 6.277 6.277v75.483c0 3.461-2.816 6.277-6.277 6.277h-61.273zm0 133.306c-3.461 0-6.277-2.816-6.277-6.277v-75.483c0-3.461 2.816-6.276 6.277-6.276h61.273c3.461 0 6.277 2.815 6.277 6.276v75.483c0 3.461-2.816 6.277-6.277 6.277zm0 133.305c-3.461 0-6.277-2.816-6.277-6.277v-75.483c0-3.461 2.816-6.276 6.277-6.276h61.273c3.461 0 6.277 2.815 6.277 6.276v75.483c0 3.461-2.816 6.277-6.277 6.277zm249.376 52.055v6.428c0 2.863-2.33 5.193-5.193 5.193h-427.091c-2.863 0-5.193-2.33-5.193-5.193v-6.428c0-2.863 2.33-5.193 5.193-5.193h427.091c2.863 0 5.193 2.33 5.193 5.193zm-46.146-133.816v75.483c0 3.461-2.816 6.277-6.277 6.277h-61.273c-3.461 0-6.277-2.816-6.277-6.277v-75.483c0-3.461 2.816-6.276 6.277-6.276h61.273c3.461 0 6.277 2.816 6.277 6.276zm0-133.305v75.483c0 3.461-2.816 6.277-6.277 6.277h-61.273c-3.461 0-6.277-2.816-6.277-6.277v-75.483c0-3.461 2.816-6.276 6.277-6.276h61.273c3.461-.001 6.277 2.815 6.277 6.276zm-44.414-154.582h-23.137c-11.732 0-21.277 9.545-21.277 21.276v75.483c0 11.732 9.545 21.277 21.277 21.277h23.137v15.269h-23.137c-11.732 0-21.277 9.545-21.277 21.276v75.483c0 11.732 9.545 21.277 21.277 21.277h23.137v15.269h-23.137c-11.732 0-21.277 9.545-21.277 21.276v75.483c0 11.732 9.545 21.277 21.277 21.277h23.137v16.861h-120.679v-16.861h23.137c11.732 0 21.277-9.545 21.277-21.277v-75.483c0-11.731-9.545-21.276-21.277-21.276h-23.137v-15.269h23.137c11.732 0 21.277-9.545 21.277-21.277v-75.483c0-11.731-9.545-21.276-21.277-21.276h-23.137v-15.269h23.137c11.732 0 21.277-9.545 21.277-21.277v-75.483c0-11.732-9.545-21.277-21.277-21.277h-23.137v-16.862h120.68v16.863z"/></g></g></svg>